
<svg xmlns="http://www.w3.org/2000/svg" xmlns:xlink="http://www.w3.org/1999/xlink" width="40" zoomAndPan="magnify" viewBox="0 0 30 22.5" height="30" preserveAspectRatio="xMidYMid meet" version="1.0"><defs><clipPath id="fc1b10d82e"><path d="M 0.324219 0 L 29.671875 0 L 29.671875 22.003906 L 0.324219 22.003906 Z M 0.324219 0 " clip-rule="nonzero"/></clipPath><clipPath id="d8f45aa3d5"><path d="M 29.667969 7.335938 L 29.667969 14.667969 C 29.667969 18.71875 26.382812 22.003906 22.332031 22.003906 L 7.660156 22.003906 C 3.609375 22.003906 0.324219 18.71875 0.324219 14.667969 L 0.324219 7.335938 C 0.324219 3.285156 3.609375 0 7.660156 0 L 22.332031 0 C 26.382812 0 29.667969 3.285156 29.667969 7.335938 Z M 29.667969 7.335938 " clip-rule="nonzero"/></clipPath><clipPath id="bcadf9eef0"><path d="M 0.324219 0 L 29.671875 0 L 29.671875 22.003906 L 0.324219 22.003906 Z M 0.324219 0 " clip-rule="nonzero"/></clipPath><clipPath id="1ae50e20d2"><path d="M 29.667969 7.335938 L 29.667969 14.667969 C 29.667969 18.71875 26.382812 22.003906 22.332031 22.003906 L 7.660156 22.003906 C 3.609375 22.003906 0.324219 18.71875 0.324219 14.667969 L 0.324219 7.335938 C 0.324219 3.285156 3.609375 0 7.660156 0 L 22.332031 0 C 26.382812 0 29.667969 3.285156 29.667969 7.335938 Z M 29.667969 7.335938 " clip-rule="nonzero"/></clipPath><clipPath id="0384a526dc"><rect x="0" width="30" y="0" height="23"/></clipPath><clipPath id="78e56f72de"><path d="M 10.867188 8.101562 L 14.621094 8.101562 L 14.621094 18.273438 L 10.867188 18.273438 Z M 10.867188 8.101562 " clip-rule="nonzero"/></clipPath><clipPath id="d62385ee18"><path d="M 12.742188 18.273438 C 12.246094 18.273438 11.769531 18.078125 11.417969 17.726562 C 11.066406 17.371094 10.867188 16.894531 10.867188 16.398438 L 10.867188 9.988281 C 10.867188 9.488281 11.066406 9.011719 11.417969 8.660156 C 11.769531 8.308594 12.246094 8.109375 12.742188 8.109375 C 13.242188 8.109375 13.71875 8.308594 14.070312 8.660156 C 14.421875 9.011719 14.621094 9.488281 14.621094 9.988281 L 14.621094 16.398438 C 14.621094 16.894531 14.421875 17.371094 14.070312 17.726562 C 13.71875 18.078125 13.242188 18.273438 12.742188 18.273438 Z M 12.742188 18.273438 " clip-rule="nonzero"/></clipPath><clipPath id="39af1dbd47"><path d="M 0.867188 0.101562 L 4.621094 0.101562 L 4.621094 10.273438 L 0.867188 10.273438 Z M 0.867188 0.101562 " clip-rule="nonzero"/></clipPath><clipPath id="4b7ae27583"><path d="M 2.742188 10.273438 C 2.246094 10.273438 1.769531 10.078125 1.417969 9.726562 C 1.066406 9.371094 0.867188 8.894531 0.867188 8.398438 L 0.867188 1.988281 C 0.867188 1.488281 1.066406 1.011719 1.417969 0.660156 C 1.769531 0.308594 2.246094 0.109375 2.742188 0.109375 C 3.242188 0.109375 3.71875 0.308594 4.070312 0.660156 C 4.421875 1.011719 4.621094 1.488281 4.621094 1.988281 L 4.621094 8.398438 C 4.621094 8.894531 4.421875 9.371094 4.070312 9.726562 C 3.71875 10.078125 3.242188 10.273438 2.742188 10.273438 Z M 2.742188 10.273438 " clip-rule="nonzero"/></clipPath><clipPath id="efe6161a22"><rect x="0" width="5" y="0" height="11"/></clipPath><clipPath id="d22e54cc18"><path d="M 4.347656 8.097656 L 8.101562 8.097656 L 8.101562 18.125 L 4.347656 18.125 Z M 4.347656 8.097656 " clip-rule="nonzero"/></clipPath><clipPath id="5293015536"><path d="M 6.222656 18.125 C 5.726562 18.125 5.25 17.925781 4.894531 17.574219 C 4.542969 17.222656 4.347656 16.746094 4.347656 16.25 L 4.347656 9.988281 C 4.347656 9.488281 4.542969 9.011719 4.894531 8.660156 C 5.25 8.308594 5.726562 8.109375 6.222656 8.109375 C 6.722656 8.109375 7.199219 8.308594 7.550781 8.660156 C 7.902344 9.011719 8.101562 9.488281 8.101562 9.988281 L 8.101562 16.25 C 8.101562 16.746094 7.902344 17.222656 7.550781 17.574219 C 7.199219 17.925781 6.722656 18.125 6.222656 18.125 Z M 6.222656 18.125 " clip-rule="nonzero"/></clipPath><clipPath id="ef077ad0b8"><path d="M 0.347656 0.0976562 L 4.101562 0.0976562 L 4.101562 10.125 L 0.347656 10.125 Z M 0.347656 0.0976562 " clip-rule="nonzero"/></clipPath><clipPath id="868d6d371f"><path d="M 2.222656 10.125 C 1.726562 10.125 1.25 9.925781 0.894531 9.574219 C 0.542969 9.222656 0.347656 8.746094 0.347656 8.25 L 0.347656 1.988281 C 0.347656 1.488281 0.542969 1.011719 0.894531 0.660156 C 1.25 0.308594 1.726562 0.109375 2.222656 0.109375 C 2.722656 0.109375 3.199219 0.308594 3.550781 0.660156 C 3.902344 1.011719 4.101562 1.488281 4.101562 1.988281 L 4.101562 8.25 C 4.101562 8.746094 3.902344 9.222656 3.550781 9.574219 C 3.199219 9.925781 2.722656 10.125 2.222656 10.125 Z M 2.222656 10.125 " clip-rule="nonzero"/></clipPath><clipPath id="7c147d44ba"><rect x="0" width="5" y="0" height="11"/></clipPath><clipPath id="5c8335d3a3"><path d="M 4 7 L 15 7 L 15 19 L 4 19 Z M 4 7 " clip-rule="nonzero"/></clipPath><clipPath id="c899c71015"><path d="M 6.203125 18.925781 L 3.550781 16.269531 L 12.703125 7.117188 L 15.359375 9.769531 Z M 6.203125 18.925781 " clip-rule="nonzero"/></clipPath><clipPath id="67fcf5e5cc"><path d="M 4.878906 17.597656 C 4.523438 17.246094 4.328125 16.769531 4.328125 16.269531 C 4.328125 15.773438 4.523438 15.296875 4.878906 14.945312 L 11.371094 8.449219 C 11.722656 8.097656 12.199219 7.902344 12.695312 7.902344 C 13.195312 7.902344 13.671875 8.097656 14.023438 8.449219 C 14.375 8.800781 14.574219 9.28125 14.574219 9.777344 C 14.574219 10.273438 14.375 10.753906 14.023438 11.105469 L 7.53125 17.597656 C 7.179688 17.949219 6.703125 18.148438 6.203125 18.148438 C 5.707031 18.148438 5.230469 17.949219 4.878906 17.597656 Z M 4.878906 17.597656 " clip-rule="nonzero"/></clipPath><clipPath id="65a91eaaa7"><path d="M 0.316406 0.746094 L 10.648438 0.746094 L 10.648438 11.3125 L 0.316406 11.3125 Z M 0.316406 0.746094 " clip-rule="nonzero"/></clipPath><clipPath id="210574a903"><path d="M 2.203125 11.925781 L -0.449219 9.269531 L 8.703125 0.117188 L 11.359375 2.769531 Z M 2.203125 11.925781 " clip-rule="nonzero"/></clipPath><clipPath id="1a7db8c540"><path d="M 0.878906 10.597656 C 0.523438 10.246094 0.328125 9.769531 0.328125 9.269531 C 0.328125 8.773438 0.523438 8.296875 0.878906 7.945312 L 7.371094 1.449219 C 7.722656 1.097656 8.199219 0.902344 8.695312 0.902344 C 9.195312 0.902344 9.671875 1.097656 10.023438 1.449219 C 10.375 1.800781 10.574219 2.28125 10.574219 2.777344 C 10.574219 3.273438 10.375 3.753906 10.023438 4.105469 L 3.53125 10.597656 C 3.179688 10.949219 2.703125 11.148438 2.203125 11.148438 C 1.707031 11.148438 1.230469 10.949219 0.878906 10.597656 Z M 0.878906 10.597656 " clip-rule="nonzero"/></clipPath><clipPath id="9197615aad"><rect x="0" width="11" y="0" height="12"/></clipPath><clipPath id="b785971967"><path d="M 4 7 L 9 7 L 9 12 L 4 12 Z M 4 7 " clip-rule="nonzero"/></clipPath><clipPath id="4642f77e28"><path d="M 6.203125 12.429688 L 3.550781 9.777344 L 6.214844 7.113281 L 8.867188 9.765625 Z M 6.203125 12.429688 " clip-rule="nonzero"/></clipPath><clipPath id="d3d9c2d7af"><path d="M 4.878906 11.105469 C 4.527344 10.753906 4.328125 10.273438 4.328125 9.777344 C 4.328125 9.28125 4.527344 8.800781 4.878906 8.449219 C 5.230469 8.097656 5.707031 7.898438 6.207031 7.898438 C 6.703125 7.898438 7.179688 8.097656 7.53125 8.449219 C 7.882812 8.800781 8.082031 9.277344 8.082031 9.777344 C 8.082031 10.273438 7.882812 10.75 7.53125 11.101562 L 7.53125 11.105469 C 7.179688 11.457031 6.703125 11.652344 6.203125 11.652344 C 5.707031 11.652344 5.230469 11.457031 4.878906 11.105469 Z M 4.878906 11.105469 " clip-rule="nonzero"/></clipPath><clipPath id="4cd3227381"><path d="M 0.316406 0.746094 L 4.308594 0.746094 L 4.308594 4.738281 L 0.316406 4.738281 Z M 0.316406 0.746094 " clip-rule="nonzero"/></clipPath><clipPath id="9b116f4386"><path d="M 2.203125 5.429688 L -0.449219 2.777344 L 2.214844 0.113281 L 4.867188 2.765625 Z M 2.203125 5.429688 " clip-rule="nonzero"/></clipPath><clipPath id="0cb36a088a"><path d="M 0.878906 4.105469 C 0.527344 3.753906 0.328125 3.273438 0.328125 2.777344 C 0.328125 2.28125 0.527344 1.800781 0.878906 1.449219 C 1.230469 1.097656 1.707031 0.898438 2.207031 0.898438 C 2.703125 0.898438 3.179688 1.097656 3.53125 1.449219 C 3.882812 1.800781 4.082031 2.277344 4.082031 2.777344 C 4.082031 3.273438 3.882812 3.75 3.53125 4.101562 L 3.53125 4.105469 C 3.179688 4.457031 2.703125 4.652344 2.203125 4.652344 C 1.707031 4.652344 1.230469 4.457031 0.878906 4.105469 Z M 0.878906 4.105469 " clip-rule="nonzero"/></clipPath><clipPath id="1a18b8f660"><rect x="0" width="5" y="0" height="5"/></clipPath><clipPath id="b362a7241a"><path d="M 10 3 L 26 3 L 26 19 L 10 19 Z M 10 3 " clip-rule="nonzero"/></clipPath><clipPath id="d285b385f5"><path d="M 12.746094 19.175781 L 10.089844 16.523438 L 23.796875 2.820312 L 26.449219 5.472656 Z M 12.746094 19.175781 " clip-rule="nonzero"/></clipPath><clipPath id="96742760ab"><path d="M 11.417969 17.851562 C 11.066406 17.496094 10.867188 17.019531 10.867188 16.523438 C 10.867188 16.023438 11.066406 15.546875 11.417969 15.195312 L 22.464844 4.148438 C 22.816406 3.796875 23.292969 3.601562 23.789062 3.601562 C 24.289062 3.601562 24.765625 3.796875 25.117188 4.148438 C 25.46875 4.5 25.667969 4.980469 25.667969 5.476562 C 25.667969 5.972656 25.46875 6.453125 25.117188 6.804688 L 14.070312 17.851562 C 13.71875 18.203125 13.242188 18.398438 12.746094 18.398438 C 12.246094 18.398438 11.769531 18.203125 11.417969 17.851562 Z M 11.417969 17.851562 " clip-rule="nonzero"/></clipPath><clipPath id="1705db2f95"><path d="M 0.65625 0.523438 L 15.683594 0.523438 L 15.683594 15.546875 L 0.65625 15.546875 Z M 0.65625 0.523438 " clip-rule="nonzero"/></clipPath><clipPath id="b19bf4b4aa"><path d="M 2.746094 16.175781 L 0.0898438 13.523438 L 13.796875 -0.179688 L 16.449219 2.472656 Z M 2.746094 16.175781 " clip-rule="nonzero"/></clipPath><clipPath id="cd2989b9c6"><path d="M 1.417969 14.851562 C 1.066406 14.496094 0.867188 14.019531 0.867188 13.523438 C 0.867188 13.023438 1.066406 12.546875 1.417969 12.195312 L 12.464844 1.148438 C 12.816406 0.796875 13.292969 0.601562 13.789062 0.601562 C 14.289062 0.601562 14.765625 0.796875 15.117188 1.148438 C 15.46875 1.5 15.667969 1.980469 15.667969 2.476562 C 15.667969 2.972656 15.46875 3.453125 15.117188 3.804688 L 4.070312 14.851562 C 3.71875 15.203125 3.242188 15.398438 2.746094 15.398438 C 2.246094 15.398438 1.769531 15.203125 1.417969 14.851562 Z M 1.417969 14.851562 " clip-rule="nonzero"/></clipPath><clipPath id="5a67e005be"><rect x="0" width="16" y="0" height="16"/></clipPath></defs><g clip-path="url(#fc1b10d82e)"><g clip-path="url(#d8f45aa3d5)"><g transform="matrix(1, 0, 0, 1, 0.000000000000000056, 0)"><g clip-path="url(#0384a526dc)"><g clip-path="url(#bcadf9eef0)"><g clip-path="url(#1ae50e20d2)"><path fill="#333333" d="M 0.324219 0 L 29.636719 0 L 29.636719 22.003906 L 0.324219 22.003906 Z M 0.324219 0 " fill-opacity="1" fill-rule="nonzero"/></g></g></g></g></g></g><g clip-path="url(#78e56f72de)"><g clip-path="url(#d62385ee18)"><g transform="matrix(1, 0, 0, 1, 10, 8)"><g clip-path="url(#efe6161a22)"><g clip-path="url(#39af1dbd47)"><g clip-path="url(#4b7ae27583)"><path fill="#d9d9d9" d="M 4.621094 10.273438 L 0.867188 10.273438 L 0.867188 0.113281 L 4.621094 0.113281 Z M 4.621094 10.273438 " fill-opacity="1" fill-rule="nonzero"/></g></g></g></g></g></g><g clip-path="url(#d22e54cc18)"><g clip-path="url(#5293015536)"><g transform="matrix(1, 0, 0, 1, 4, 8)"><g clip-path="url(#7c147d44ba)"><g clip-path="url(#ef077ad0b8)"><g clip-path="url(#868d6d371f)"><path fill="#d9d9d9" d="M 4.101562 10.125 L 0.347656 10.125 L 0.347656 0.113281 L 4.101562 0.113281 Z M 4.101562 10.125 " fill-opacity="1" fill-rule="nonzero"/></g></g></g></g></g></g><g clip-path="url(#5c8335d3a3)"><g clip-path="url(#c899c71015)"><g clip-path="url(#67fcf5e5cc)"><g transform="matrix(1, 0, 0, 1, 4, 7)"><g clip-path="url(#9197615aad)"><g clip-path="url(#65a91eaaa7)"><g clip-path="url(#210574a903)"><g clip-path="url(#1a7db8c540)"><path fill="#ffffff" d="M 2.203125 11.925781 L -0.449219 9.269531 L 8.691406 0.128906 L 11.347656 2.78125 Z M 2.203125 11.925781 " fill-opacity="1" fill-rule="nonzero"/></g></g></g></g></g></g></g></g><g clip-path="url(#b785971967)"><g clip-path="url(#4642f77e28)"><g clip-path="url(#d3d9c2d7af)"><g transform="matrix(1, 0, 0, 1, 4, 7)"><g clip-path="url(#1a18b8f660)"><g clip-path="url(#4cd3227381)"><g clip-path="url(#9b116f4386)"><g clip-path="url(#0cb36a088a)"><path fill="#ffffff" d="M 2.203125 5.429688 L -0.449219 2.777344 L 2.203125 0.125 L 4.859375 2.777344 Z M 2.203125 5.429688 " fill-opacity="1" fill-rule="nonzero"/></g></g></g></g></g></g></g></g><g clip-path="url(#b362a7241a)"><g clip-path="url(#d285b385f5)"><g clip-path="url(#96742760ab)"><g transform="matrix(1, 0, 0, 1, 10, 3)"><g clip-path="url(#5a67e005be)"><g clip-path="url(#1705db2f95)"><g clip-path="url(#b19bf4b4aa)"><g clip-path="url(#cd2989b9c6)"><path fill="#ffffff" d="M 2.746094 16.175781 L 0.0898438 13.523438 L 13.796875 -0.179688 L 16.449219 2.472656 Z M 2.746094 16.175781 " fill-opacity="1" fill-rule="nonzero"/></g></g></g></g></g></g></g></g></svg>